<?xml version="1.0"?>
<!-- Created with Simplex (http://voloshinov.ru/simplex/) -->
<svg width="1173" height="452"
viewBox="-801 -388 1809 697">
<title>C:\USERS\PAVEL\DOWNLOADS\PRIMER (1).SPX</title>
<disc></disc>
<g>
<ellipse fill="none" stroke="#000000" stroke-width="2.37841423" cx="-298" cy="-20.24720216" rx="107.7" ry="107.7" id="d1.1"/>
<ellipse fill="none" stroke="#000000" stroke-width="2.37841423" cx="56" cy="-287.2472022" rx="66" ry="66" id="d2.1"/>
<ellipse fill="none" stroke="#000000" stroke-width="2.37841423" cx="178" cy="-68.24720216" rx="37" ry="37" id="d3.1"/>
<ellipse fill="none" stroke="#000000" stroke-width="2.37841423" cx="616.2877698" cy="-709.8371302" rx="892.5075986" ry="892.5075986" id="d4.1"/>
<ellipse fill="none" stroke="#000000" stroke-width="2.37841423" cx="-78.50777202" cy="-185.796425" rx="0" ry="0" id="d5.1"/>
<ellipse fill="none" stroke="#000000" stroke-width="2.37841423" cx="427.1089109" cy="-93.36742847" rx="422.4724698" ry="422.4724698" id="d6.1"/>
<ellipse fill="none" stroke="#000000" stroke-width="2.37841423" cx="56.28610919" cy="-55.9735325" rx="0" ry="0" id="d7.1"/>
<ellipse fill="none" stroke="#FF8000" stroke-width="2.37841423" cx="6.075908352" cy="-58.52207763" rx="211.18578" ry="211.18578" id="d8.1"/>
<ellipse fill="none" stroke="#000000" stroke-width="2.37841423" cx="-158.6510452" cy="-37.78744046" rx="58.34428972" ry="58.34428972" id="d9.1"/>
<ellipse fill="none" stroke="#000000" stroke-width="2.37841423" cx="50.20902452" cy="-260.7160918" rx="58.34428972" ry="58.34428972" id="d10.1"/>
<ellipse fill="none" stroke="#000000" stroke-width="2.37841423" cx="277.1783141" cy="-73.85736096" rx="58.34428972" ry="58.34428972" id="d11.1"/>
<ellipse fill="none" stroke="#06AAFE" stroke-width="2.37841423" cx="60.42041514" cy="-41.84513187" rx="277.4533255" ry="277.4533255" id="d12.1"/>
<ellipse fill="none" stroke="#06AAFE" stroke-width="2.37841423" cx="60.42041514" cy="-41.84513187" rx="160.7647461" ry="160.7647461" id="d13.1"/>
<ellipse fill="none" stroke="#000000" stroke-width="2.37841423" cx="-26.78877387" cy="-68.60741202" rx="167.7890907" ry="167.7890907" id="d14.1"/>
<ellipse fill="none" stroke="#000000" stroke-width="2.37841423" cx="-101.1032498" cy="-91.41263297" rx="317.0629594" ry="317.0629594" id="d15.1"/>
</g>
</svg>
